<svg xmlns="http://www.w3.org/2000/svg" width="93" height="44" viewBox="0 0 93 44" fill="none">
<path fill-rule="evenodd" clip-rule="evenodd" d="M30.0212 1.56925C30.0212 2.05803 28.8908 4.32309 27.5096 6.60194C26.128 8.88128 24.2038 12.1249 23.2332 13.8105C21.4967 16.8265 20.2465 17.7533 20.2465 16.0253C20.2465 15.5414 21.7558 12.7073 23.5998 9.72729C29.5076 0.182233 29.7832 -1.11856 24.7473 4.3088C23.1115 6.07127 21.0789 8.96652 20.1703 10.827C18.7046 13.8287 18.536 14.6072 18.536 18.3726C18.536 22.1838 18.7051 22.9402 20.3687 26.575C22.3178 30.8326 22.6462 33.2908 21.4889 34.9562C18.9059 38.6743 0.208374 41.3937 0.208374 38.051C0.208374 37.2346 2.72292 35.1356 3.70088 35.1356C4.88069 35.1356 4.84403 35.5564 3.54448 36.9518L2.48148 38.0919H4.7023C8.16743 38.0919 15.3836 36.6803 17.7198 35.5451C21.4664 33.7244 21.4889 32.9405 18.0311 24.575C16.3674 20.5505 16.2374 19.9011 16.5072 16.9866C16.887 12.8857 18.8253 8.77584 22.4346 4.42016C25.3949 0.847904 27.6817 -0.582475 29.1591 0.21426C29.6332 0.470477 30.0212 1.07998 30.0212 1.56925ZM45.1721 13.1502C45.1721 14.3377 44.2928 18.3815 43.2176 22.137C41.5461 27.9783 41.3394 29.1983 41.7895 30.5725C42.4508 32.5931 43.1257 32.5941 45.0122 30.5779C47.1837 28.2577 48.8058 25.1845 50.9821 19.2714C53.179 13.301 53.8129 11.9776 54.4751 11.9776C55.2591 11.9776 55.0113 13.6183 53.7591 16.7255C51.9401 21.2383 48.5966 31.1938 48.9001 31.1938C49.0482 31.1938 49.5404 30.7321 49.9939 30.1675L50.8184 29.1411L53.4933 30.9795C55.1559 32.1216 55.7063 32.6922 54.9468 32.4862C51.5549 31.5678 51.1097 31.5796 50.0042 32.6178C49.3957 33.1898 48.6362 33.6574 48.3166 33.6574C47.2966 33.6574 46.5386 32.2867 46.9085 31.1115C47.1881 30.2236 46.911 30.3695 45.5474 31.827C43.5216 33.9925 43.0524 34.0605 41.5359 32.4108L40.3898 31.1642L38.5849 33.6426C36.7854 36.1141 35.629 36.6502 34.5176 35.5298C33.6457 34.6508 33.807 33.1297 34.977 31.1938C36.5141 28.6513 37.7799 27.6772 38.8185 28.2375C39.5355 28.6242 39.73 28.4464 39.9822 27.1761C40.1483 26.337 40.2847 24.6573 40.2847 23.4428C40.2847 19.195 43.0099 10.9921 44.4214 10.9921C44.9819 10.9921 45.1721 11.538 45.1721 13.1502ZM42.4698 18.615C41.9923 20.3923 41.7186 21.9636 41.8609 22.107C42.0031 22.2504 42.5099 20.9136 42.9869 19.1364C43.4644 17.3591 43.7381 15.7878 43.5959 15.6444C43.4537 15.501 42.9468 16.8378 42.4698 18.615ZM78.4232 22.5421C78.433 23.1003 78.7482 24.1109 79.1245 24.7884C79.5698 25.591 79.71 26.7573 79.5267 28.1355L79.2448 30.2507L80.6582 29.6432C81.4358 29.3091 82.2808 28.8563 82.5359 28.6366C83.4068 27.8881 84.2518 28.2355 84.5588 29.4693C84.961 31.0854 87.3832 31.2179 88.2052 29.6693L88.7531 28.6376L89.9383 29.76C90.7383 30.5178 90.9422 30.9962 90.5648 31.2312C90.2413 31.4328 90.6709 31.7269 91.5853 31.9289C92.706 32.1773 93.0129 32.432 92.6425 32.8055C92.2715 33.1795 91.5834 33.1578 90.2726 32.7321C87.3631 31.787 83.2431 31.0928 80.9109 31.1549C78.2155 31.2268 77.4066 30.5764 77.6881 28.5641C77.8533 27.3831 77.7302 27.5378 77.1794 29.2042C76.0988 32.4749 75.4859 32.9203 72.9557 32.2724C71.2202 31.8284 70.71 31.8669 70.0238 32.4931C68.9124 33.5071 67.5664 33.1775 66.8431 31.7146L66.2522 30.5198L64.2103 32.5788C62.2969 34.5074 62.1928 34.7542 62.5578 36.4881C63.3809 40.3944 63.1443 41.6435 61.3502 42.8699C59.2584 44.2993 56.302 44.3855 54.9829 43.0556C53.6506 41.7125 54.1189 40.5398 57.4799 36.8005C59.0737 35.0277 60.293 33.3179 60.1899 33.0011C60.0868 32.6848 59.1416 32.3148 58.0903 32.1792C55.7889 31.8826 55.3705 30.7666 56.9907 29.2451C58.669 27.6684 60.8541 28.0463 61.7891 30.0743C62.1923 30.9494 62.7978 31.6698 63.1346 31.6757C63.4718 31.6816 64.85 30.6149 66.1975 29.3057C68.0229 27.5314 68.7731 27.0766 69.1387 27.521C69.4686 27.9216 69.4608 28.5661 69.1152 29.4826C68.6714 30.6587 68.6993 30.7646 69.3161 30.2488C69.883 29.7743 70.2681 29.7999 71.1645 30.3705C74.1125 32.2468 74.3383 32.1044 75.7371 27.4816C76.501 24.9564 76.9018 22.7323 76.7229 22.0134C76.5572 21.3467 76.5714 20.5564 76.7551 20.2568C77.1974 19.535 78.4002 21.1826 78.4232 22.5421ZM31.0618 30.5779C31.4782 32.4074 31.7631 33.9772 31.6952 34.0669C31.6267 34.1566 31.1126 33.9826 30.552 33.6801C29.8008 33.2751 29.2632 33.2756 28.5096 33.6821C26.928 34.5355 25.1339 33.8727 25.1339 32.4355C25.1339 31.18 28.6039 27.252 29.7129 27.252C30.0423 27.252 30.6395 28.7243 31.0618 30.5779ZM27.9084 30.6099C26.3777 32.2206 26.125 33.4559 27.4749 32.7277C28.4192 32.2177 29.8497 29.8708 29.4568 29.4752C29.3248 29.3421 28.6284 29.8526 27.9084 30.6099ZM37.473 30.3315C36.6358 31.3894 35.3143 34.231 35.5493 34.4675C35.8758 34.7966 38.8185 31.0829 38.8185 30.3424C38.8185 29.5412 38.1035 29.5353 37.473 30.3315ZM58.4192 30.2502C57.7751 30.5099 57.3802 30.8548 57.541 31.0174C57.9735 31.453 60.3229 30.7617 60.3229 30.199C60.3229 29.6181 59.9622 29.6279 58.4192 30.2502ZM58.6758 37.5933C55.4658 41.1754 55.2806 43.4562 58.2536 42.798C60.687 42.2594 61.7754 40.8689 61.4489 38.7162C60.9616 35.5002 60.6606 35.3785 58.6758 37.5933Z" fill="#172935"/>
</svg>